<svg width="24" height="24" viewBox="0 0 24 24" fill="none" xmlns="http://www.w3.org/2000/svg">
<g id="pepicons-pencil:letter">
<g id="Group">
<path id="Vector" fill-rule="evenodd" clip-rule="evenodd" d="M20.4009 5H3.60085C3.44172 5 3.28911 5.06321 3.17659 5.17574C3.06407 5.28826 3.00085 5.44087 3.00085 5.6V18.8C3.00085 18.9591 3.06407 19.1117 3.17659 19.2243C3.28911 19.3368 3.44172 19.4 3.60085 19.4H20.4009C20.56 19.4 20.7126 19.3368 20.8251 19.2243C20.9376 19.1117 21.0009 18.9591 21.0009 18.8V5.6C21.0009 5.44087 20.9376 5.28826 20.8251 5.17574C20.7126 5.06321 20.56 5 20.4009 5ZM4.20085 18.2V6.2H19.8009V18.2H4.20085Z" fill="white"/>
<path id="Vector_2" fill-rule="evenodd" clip-rule="evenodd" d="M20.7898 6.056L12.3358 13.256C12.227 13.3488 12.0886 13.3997 11.9456 13.3994C11.8026 13.3992 11.6644 13.3479 11.5558 13.2548L3.20865 6.0548C3.11573 5.97484 3.04953 5.86834 3.01896 5.74963C2.98839 5.63092 2.99491 5.50569 3.03765 5.3908C3.08039 5.27591 3.1573 5.17686 3.25803 5.10699C3.35875 5.03713 3.47846 4.99979 3.60105 5H20.401C20.5236 5.00024 20.6431 5.038 20.7436 5.1082C20.8441 5.1784 20.9206 5.27769 20.9629 5.3927C21.0053 5.5077 21.0114 5.63292 20.9805 5.7515C20.9495 5.87009 20.883 5.97635 20.7898 6.056ZM18.7714 6.2H5.21505L11.9494 12.0092L18.7714 6.2Z" fill="white"/>
</g>
</g>
</svg>
